<?xml version="1.0" standalone="no"?>
<!DOCTYPE svg PUBLIC "-//W3C//DTD SVG 1.1//EN" "http://www.w3.org/Graphics/SVG/1.1/DTD/svg11.dtd" >
<svg xmlns="http://www.w3.org/2000/svg">
<metadata>
This is a custom SVG webfont generated by Fontspring.
</metadata>
<defs>
<font id="MonoxilRegular" horiz-adv-x="1259" >
<font-face units-per-em="2048" ascent="1536" descent="-512" />
<missing-glyph horiz-adv-x="500" />
<glyph unicode=" " />
<glyph unicode="!" d="M498 112.5q0 55.5 38.5 94.5t94 39t94.5 -39t39 -94.5t-39 -94t-94.5 -38.5t-94 38.5t-38.5 94zM586 498v882h90v-882h-90z" />
<glyph unicode="&#x22;" d="M430 1092v444h90v-444h-90zM739 1092v444h90v-444h-90z" />
<glyph unicode="#" d="M143 416v90h197l86 426h-190v88h208l76 369l88 -17l-71 -352h256l75 369l88 -17l-71 -352h168v-88h-187l-88 -426h180v-90h-198l-86 -424l-86 18l82 406h-258l-86 -424l-86 18l82 406h-179zM430 506h258l86 426h-256z" />
<glyph unicode="$" d="M213 156l78 45q109 -152 317 -152q131 0 206 65.5t75 157.5q0 102 -62.5 189.5t-151.5 153.5l-179 134q-90 67 -152.5 159.5t-62.5 203.5q0 119 76.5 202t207.5 101v211h88v-205q174 -8 308 -121l-64 -61q-104 92 -262 92q-109 0 -187.5 -55t-78.5 -164q0 -68 33.5 -129 t87 -110.5t117.5 -97.5l130 -99q66 -51 119 -107.5t87 -133.5t34 -163q0 -123 -90 -210t-234 -101v-207h-88v207q-235 21 -352 195z" />
<glyph unicode="%" d="M117 1124.5q0 118.5 72.5 202.5t175 84t176 -84t73.5 -202.5t-73.5 -202.5t-176 -84t-175 84t-72.5 202.5zM164 23l823 1380l76 -45l-821 -1381zM207 1124q0 -82 46 -140t111.5 -58t112.5 58t47 140t-47 140.5t-112.5 58.5t-111.5 -58.5t-46 -140.5zM614 262 q0 119 73 203t175.5 84t175 -84t72.5 -203q0 -121 -72.5 -205t-175 -84t-175.5 84t-73 205zM702 262q0 -82 47.5 -140.5t113 -58.5t112.5 58.5t47 140.5t-47 139.5t-112.5 57.5t-113 -57.5t-47.5 -139.5z" />
<glyph unicode="&#x26;" d="M160 283q0 131 58 234.5t165 213.5q-156 231 -156 385q0 125 71 207t173 82q111 0 179.5 -79t68.5 -193q0 -78 -37 -157t-76 -127t-110 -126q133 -182 368 -414q76 141 76 320q0 195 -78 375l84 34q82 -195 82 -409q0 -223 -96 -385q131 -125 231 -209l-57 -68 q-96 80 -225 203q-158 -195 -400 -195q-131 0 -226 87.5t-95 220.5zM250 282.5q0 -102.5 70.5 -161t160.5 -58.5q205 0 334 168q-229 221 -379 426q-90 -98 -138 -185t-48 -189.5zM317 1116q0 -131 127 -317q92 96 139.5 172t47.5 162q0 78 -44 131t-116 53 q-66 0 -110 -55.5t-44 -145.5z" />
<glyph unicode="'" d="M586 1092v444h90v-444h-90z" />
<glyph unicode="(" d="M494 516q0 211 31.5 397.5t77.5 302t92 199.5t79 121l31 35l65 -58q-12 -12 -31.5 -34.5t-68.5 -108.5t-87 -190.5t-68.5 -282.5t-30.5 -381q0 -492 219 -858q35 -59 61 -92l-71 -53q-12 14 -33 41.5t-72 124t-90 204t-71.5 279.5t-32.5 354z" />
<glyph unicode=")" d="M389 -432q12 12 31.5 34.5t69 108.5t87 190.5t68.5 282.5t31 381q0 492 -219 858q-35 59 -62 93l72 53q12 -14 32.5 -42t72 -124t90 -203.5t71.5 -279.5t33 -355q0 -211 -32 -397t-78 -302t-92 -200t-77 -121l-32 -34z" />
<glyph unicode="*" d="M289 948l260 172l-260 170l49 74l248 -162v334h88v-334l248 162l49 -74l-260 -170l260 -172l-49 -74l-248 162v-334h-88v334l-248 -162z" />
<glyph unicode="+" d="M233 526v88h353v353h88v-353h354v-88h-354v-354h-88v354h-353z" />
<glyph unicode="," d="M440 -317l166 299q-109 25 -108 131q0 55 38.5 94t94 39t94.5 -39t39 -94q0 -37 -23 -80l-225 -393z" />
<glyph unicode="-" d="M295 526v88h672v-88h-672z" />
<glyph unicode="." d="M498 112.5q0 55.5 38.5 94.5t94 39t94.5 -39t39 -94.5t-39 -94t-94.5 -38.5t-94 38.5t-38.5 94z" />
<glyph unicode="/" d="M295 -182l588 1745l84 -29l-588 -1745z" />
<glyph unicode="0" d="M172 690q0 193 58.5 360t165 269t235.5 102q193 0 327 -214t134 -517q0 -301 -134.5 -516t-326.5 -215q-195 0 -327 217t-132 514zM260 692q0 -186 58.5 -342.5t152.5 -236.5l250 1198q-41 20 -90 20q-152 0 -261.5 -188.5t-109.5 -450.5zM543 68q43 -18 88 -19 q150 0 260 188.5t110 452.5q0 184 -58 340t-152 236z" />
<glyph unicode="1" d="M209 0v88h424v1186l-381 -109l-25 84l496 144v-1305h393v-88h-907z" />
<glyph unicode="2" d="M215 0v162q68 82 228.5 260t242.5 283q172 219 172 374q0 111 -71.5 181.5t-200.5 70.5q-139 0 -295 -88l-47 74q70 45 166 74.5t176 29.5q166 0 263 -97t97 -245q0 -188 -190 -428l-128 -154l-172 -195l-153 -173v-39h705v-90h-793z" />
<glyph unicode="3" d="M199 6l18 88q127 -27 287 -26q203 0 293 82.5t90 257.5q0 143 -71 213.5t-238 70.5h-216v90h213q279 74 279 308q0 113 -78 178t-198 65q-59 0 -136 -23.5t-133 -66.5l-55 70q66 51 158 79.5t166 28.5q162 0 263 -92t101 -239q0 -119 -58.5 -207t-162.5 -127 q254 -47 254 -348q0 -428 -471 -428q-176 -1 -305 26z" />
<glyph unicode="4" d="M168 403v170l539 807h153v-888h285v-89h-285v-403h-90v403h-602zM256 492h514v825l-514 -770v-55z" />
<glyph unicode="5" d="M217 12l25 86q133 -31 295 -30q203 0 296 90t93 305q0 319 -287 319q-186 0 -365 -80v678h711v-90h-620v-456q123 37 274 36q184 0 280.5 -106.5t96.5 -300.5q0 -262 -123 -372.5t-356 -110.5q-195 -1 -320 32z" />
<glyph unicode="6" d="M217 426q0 319 109.5 567t394.5 422l45 -76q-315 -197 -410 -516q115 45 265 45q203 0 302 -110.5t99 -339.5q0 -459 -401 -459q-217 0 -310.5 119t-93.5 348zM307 426q0 -217 77 -298t237 -81q164 0 238.5 87t74.5 283.5t-76 279.5t-237 83q-147 0 -289 -61 q-25 -133 -25 -293z" />
<glyph unicode="7" d="M195 1292v88h786v-188l-514 -1208l-82 34l508 1192v82h-698z" />
<glyph unicode="8" d="M238 330q0 74 24.5 136t74.5 113.5t94 84t116 77.5q-119 78 -184.5 160t-65.5 201q0 319 330 319q162 0 244.5 -86t82.5 -233q0 -119 -65.5 -201t-181.5 -160q94 -57 151 -103t106.5 -128t49.5 -180q0 -180 -101.5 -275.5t-285.5 -95.5q-180 0 -284.5 89t-104.5 282z M326 330q0 -287 301 -287q143 0 221 75t78 212q0 61 -23.5 114.5t-72 99.5t-91.5 76.5t-112 73.5q-72 -43 -115 -72.5t-91 -75.5t-71.5 -99.5t-23.5 -116.5zM385 1102q0 -98 62.5 -170t179.5 -146q115 74 177 146t62 170q0 236 -239 235q-129 0 -185.5 -59t-56.5 -176z" />
<glyph unicode="9" d="M205 989q0 432 385 432q209 0 298 -110.5t89 -327.5q0 -719 -481 -1014l-45 76q297 184 391 541q-100 -31 -252 -31q-385 0 -385 434zM295 989q0 -184 70.5 -265t224.5 -81q162 0 272 43q25 135 25 297q0 197 -71 273.5t-226 76.5q-150 0 -222.5 -75.5t-72.5 -268.5z" />
<glyph unicode=":" d="M498 112.5q0 55.5 38.5 94.5t94 39t94.5 -39t39 -94.5t-39 -94t-94.5 -38.5t-94 38.5t-38.5 94zM498 907.5q0 55.5 38.5 94t94 38.5t94.5 -38.5t39 -94t-39 -94.5t-94.5 -39t-94 39t-38.5 94.5z" />
<glyph unicode=";" d="M440 -317l166 299q-109 25 -108 131q0 55 38.5 94t94 39t94.5 -39t39 -94q0 -37 -23 -80l-225 -393zM498 907.5q0 55.5 38.5 94t94 38.5t94.5 -38.5t39 -94t-39 -94.5t-94.5 -39t-94 39t-38.5 94.5z" />
<glyph unicode="&#x3c;" d="M244 459v104l671 494l50 -68l-650 -477l660 -479l-47 -70z" />
<glyph unicode="=" d="M233 336v88h795v-88h-795zM233 717v88h795v-88h-795z" />
<glyph unicode="&#x3e;" d="M285 33l659 479l-649 477l49 68l672 -494v-104l-684 -496z" />
<glyph unicode="?" d="M319 1149q0 10 3.5 28.5t21.5 65.5t48 82t92.5 64.5t146.5 29.5q131 0 210 -79.5t79 -215.5q0 -84 -26 -154.5t-60 -121.5l-71 -100q-36 -49 -61.5 -113t-25.5 -137h-90q0 104 39 190t84 136t83.5 130t38.5 170q0 96 -52 151.5t-148 55.5q-59 0 -104.5 -18.5t-67 -45 t-34.5 -54t-15 -46.5l-2 -18h-89zM498 112.5q0 55.5 38.5 94.5t94 39t94.5 -39t39 -94.5t-39 -94t-94.5 -38.5t-94 38.5t-38.5 94z" />
<glyph unicode="@" d="M94 510q0 287 161 475.5t376 188.5q240 0 388 -195t148 -469q0 -176 -62.5 -248t-139.5 -72q-94 0 -140 97q-117 -119 -233 -119q-98 0 -162.5 57.5t-64.5 143.5q0 78 58 135t148 57q57 0 107.5 -20.5t122.5 -91.5v106q0 197 -191 197q-98 0 -164 -41l-49 73 q88 55 213 56q133 0 206 -74t73 -211v-197q25 -78 76 -77q115 0 114 229q0 238 -128 406.5t-320 168.5q-182 0 -314.5 -166.5t-132.5 -408.5q0 -244 130 -410t323 -166q178 0 321 170l72 -53q-70 -90 -174 -148.5t-219 -58.5q-233 0 -388 187.5t-155 478.5zM455 369 q0 -45 40 -79t99 -34q86 0 197 98q-68 66 -113 92.5t-96 26.5q-59 0 -93 -29.5t-34 -74.5z" />
<glyph unicode="A" d="M145 12l373 1368h225l373 -1368l-86 -22l-160 585h-479l-160 -585zM414 664h432l-170 626h-90z" />
<glyph unicode="B" d="M258 0v1380h444q119 0 198 -93t79 -232q0 -215 -139 -328q86 -47 125 -136t39 -185q0 -170 -91.5 -288t-238.5 -118h-416zM348 88h326q106 0 172.5 90t66.5 232q0 127 -61 193.5t-143 66.5h-361v-582zM348 758h322q109 0 165 88t56 207q0 106 -53.5 172.5t-135.5 66.5 h-354v-534z" />
<glyph unicode="C" d="M217 690q0 340 122 535.5t320 195.5q141 0 227.5 -80.5t125.5 -191.5l-84 -31q-82 213 -269 213q-160 0 -257 -173t-97 -468q0 -283 98.5 -463t245.5 -180q121 0 203 98.5t115 233.5l88 -21q-35 -154 -140.5 -276.5t-265.5 -122.5q-195 0 -313.5 208t-118.5 523z" />
<glyph unicode="D" d="M262 0v1380h313q180 0 274.5 -49t139.5 -183t45 -394q0 -193 -9 -308.5t-35.5 -212t-80 -141.5t-135.5 -68.5t-209 -23.5h-303zM350 88h215q90 0 143.5 7t101.5 34t70.5 67t39 119.5t21.5 180t5 258.5q0 180 -15.5 282.5t-60.5 161.5t-110.5 76.5t-184.5 17.5h-225v-1204 z" />
<glyph unicode="E" d="M313 0v1380h658v-88h-568v-534h410v-88h-410v-582h568v-88h-658z" />
<glyph unicode="F" d="M319 0v1380h656v-88h-567v-598h411v-88h-411v-606h-89z" />
<glyph unicode="G" d="M186 690q0 324 122 527.5t315 203.5q121 0 219 -75.5t139 -198.5l-84 -27q-35 100 -110.5 156.5t-163.5 56.5q-160 0 -253.5 -187.5t-93.5 -455.5q0 -283 96.5 -463t250.5 -180q117 0 188.5 90t93.5 217q18 100 18 223q0 33 -1 68h-351v88h437q4 -68 3 -130 q0 -135 -18 -242q-27 -157 -86 -241.5t-128.5 -122.5t-155.5 -38q-197 0 -317 206t-120 525z" />
<glyph unicode="H" d="M248 0v1380h90v-622h586v622h88v-1380h-88v670h-586v-670h-90z" />
<glyph unicode="I" d="M193 0v88h393v1204h-252v88h594v-88h-252v-1204h393v-88h-876z" />
<glyph unicode="J" d="M291 1290v90h483v-1083l-303 -520l-78 45l293 500v968h-395z" />
<glyph unicode="K" d="M295 0v1380h88v-622h156l413 639l74 -49l-410 -633l451 -645l-72 -52l-456 652h-156v-670h-88z" />
<glyph unicode="L" d="M414 0v1380h88v-1292h569v-88h-657z" />
<glyph unicode="M" d="M174 0v1380h238l219 -526l219 526h237v-1380h-90v1292h-88l-219 -524h-119l-219 524h-90v-1292h-88z" />
<glyph unicode="N" d="M233 0v1380h216l425 -1292h62v1292h90v-1380h-215l-426 1292h-63v-1292h-89z" />
<glyph unicode="O" d="M186 690q0 301 130 516t313 215q184 0 314 -215t130 -516t-130 -516t-314 -215q-182 0 -312.5 215t-130.5 516zM274 690q0 -262 104.5 -450.5t250.5 -188.5q147 0 250.5 188.5t103.5 450.5q0 264 -103.5 451.5t-250.5 187.5q-145 0 -250 -188.5t-105 -450.5z" />
<glyph unicode="P" d="M307 0v1380h430q143 0 229.5 -95t86.5 -257q0 -190 -99.5 -297.5t-230.5 -107.5h-326v-623h-90zM397 711h326q98 0 169 84t71 233q0 121 -58.5 192.5t-167.5 71.5h-340v-581z" />
<glyph unicode="Q" d="M186 690q0 301 130 516t313 215q184 0 314 -215t130 -516q0 -250 -94 -446.5t-238 -259.5l342 -236l-49 -74l-416 287q-180 6 -306 219t-126 510zM274 690q0 -262 104.5 -451.5t250.5 -189.5q147 0 250.5 189.5t103.5 451.5q0 264 -103.5 451.5t-250.5 187.5 q-145 0 -250 -188.5t-105 -450.5z" />
<glyph unicode="R" d="M289 0v1380h438q135 0 220 -88t85 -229q0 -162 -89 -262.5t-226 -102.5l370 -669l-77 -43l-394 712h-239v-698h-88zM377 786h338q104 0 166.5 77t62.5 200q0 104 -59.5 166.5t-157.5 62.5h-350v-506z" />
<glyph unicode="S" d="M213 156l78 45q109 -152 317 -152q131 0 206 65.5t75 157.5q0 102 -62.5 189.5t-151.5 153.5l-179 134q-90 67 -152.5 159.5t-62.5 203.5q0 135 97 222t257 87q188 0 326 -121l-64 -61q-104 92 -262 92q-109 0 -187.5 -55t-78.5 -164q0 -68 33.5 -129t87 -110.5 t117.5 -97.5l130 -99q66 -51 119 -107.5t87 -133.5t34 -163q0 -133 -103.5 -223t-265.5 -90q-121 0 -226.5 51.5t-168.5 145.5z" />
<glyph unicode="T" d="M172 1292v88h915v-88h-413v-1292h-88v1292h-414z" />
<glyph unicode="U" d="M236 502v878h90v-878q0 -453 303 -453q305 0 305 453v878h90v-878q0 -274 -105.5 -408.5t-289.5 -134.5q-176 0 -284.5 129t-108.5 414z" />
<glyph unicode="V" d="M117 1366l86 25l377 -1303h102l379 1303l84 -25l-397 -1366h-234z" />
<glyph unicode="W" d="M111 1374l90 8l121 -1294h86l145 735h154l145 -735h86l123 1294l88 -8l-129 -1374h-234l-155 778l-156 -778h-233z" />
<glyph unicode="X" d="M190 20l322 685l-291 659l82 35l287 -649h82l286 649l82 -35l-290 -657l321 -687l-80 -36l-317 675h-86l-316 -675z" />
<glyph unicode="Y" d="M201 1360l80 37l348 -764l348 764l82 -37l-385 -842v-518h-90v518z" />
<glyph unicode="Z" d="M207 0v170l747 1075v47h-725v88h815v-161l-747 -1078v-53h772v-88h-862z" />
<glyph unicode="[" d="M463 -158v1694h545v-88h-455v-1518h455v-88h-545z" />
<glyph unicode="\" d="M295 1534l84 29l588 -1745l-84 -29z" />
<glyph unicode="]" d="M252 -70h455v1518h-455v88h545v-1694h-545v88z" />
<glyph unicode="^" d="M102 711l494 669h104l496 -684l-70 -47l-479 660l-477 -647z" />
<glyph unicode="_" d="M131 0h999v-88h-999v88z" />
<glyph unicode="`" d="M371 1749l59 61l293 -290l-59 -58z" />
<glyph unicode="a" d="M172 258q0 113 82 197t221 84q180 0 410 -56v203q0 113 -84 189.5t-211 76.5q-162 0 -289 -37l-31 84q135 41 320 41q162 0 272.5 -101t110.5 -253v-455l278 -188l-49 -74l-293 197q-92 -82 -205.5 -134t-211.5 -52q-147 0 -233.5 80.5t-86.5 197.5zM260 258 q0 -76 58.5 -132t173.5 -56q98 0 207.5 60t185.5 134v127q-225 59 -410 60q-102 0 -158.5 -59.5t-56.5 -133.5z" />
<glyph unicode="b" d="M262 29v1507h90v-541q150 45 293 45q213 0 306 -112.5t93 -384.5q0 -305 -93 -433t-349 -128q-205 0 -340 47zM352 94q100 -25 250 -24q209 0 280.5 96t71.5 377q0 246 -70.5 327.5t-238.5 81.5q-131 0 -293 -49v-809z" />
<glyph unicode="c" d="M227 510q0 244 123 397.5t318 153.5q252 0 372 -227l-79 -41q-94 178 -293 178q-154 0 -253.5 -126t-99.5 -335q0 -199 97.5 -331t261.5 -132q115 0 193.5 66.5t115.5 177.5l86 -23q-39 -129 -141.5 -219t-253.5 -90q-199 0 -323 155.5t-124 395.5z" />
<glyph unicode="d" d="M145 510q0 530 451 530q131 0 266 -32v528h88v-1311l293 -186l-47 -76l-287 180q-100 -90 -181 -137t-183 -47q-199 0 -299.5 142.5t-100.5 408.5zM233 510q0 -463 312 -463q23 0 45 3t42.5 10.5l38 14.5t37 20.5t33 21.5t33.5 25l30 26l30 28q20 19 28 25v694 q-139 37 -266 37q-182 0 -272.5 -102t-90.5 -340z" />
<glyph unicode="e" d="M213 510q0 233 116.5 392t315.5 159q176 0 292 -141q108 -132 108 -329q0 -14 -1 -28h-741q-2 -18 -2 -53q0 -209 94 -336t250 -127q215 0 305 229l86 -26q-47 -127 -146 -209t-247 -82q-193 0 -311.5 151.5t-118.5 399.5zM313 651h637q-14 143 -101 231.5t-204 88.5 q-123 0 -212 -86.5t-120 -233.5z" />
<glyph unicode="f" d="M197 0v90h295v1106q0 154 97 247t242 93h181v-90h-181q-111 0 -180 -66.5t-69 -183.5v-176h430v-88h-430v-842h430v-90h-815z" />
<glyph unicode="g" d="M201 633q0 240 99 334t343 94q74 0 159 -10.5t132 -20.5l49 -10v-1202q0 -324 -367 -324q-197 0 -287.5 63.5t-90.5 206.5q0 113 69.5 179.5t227.5 99.5l358 74v131q-111 -16 -295 -17q-205 0 -301 92.5t-96 309.5zM291 633q0 -176 67.5 -245t239.5 -69q174 0 295 19v606 q-143 29 -244 29q-213 0 -285.5 -67.5t-72.5 -272.5zM328 -236q0 -90 57 -136t219 -46q160 0 224.5 53.5t64.5 182.5v207q-178 -33 -336 -68q-127 -29 -178 -71t-51 -122z" />
<glyph unicode="h" d="M250 0v1536h88v-608q131 113 317 112q152 0 244 -89t92 -240v-711h-90v711q0 111 -62.5 175t-183.5 64q-213 0 -317 -141v-809h-88z" />
<glyph unicode="i" d="M238 0v90h393v842h-393v88h483v-930h393v-90h-876zM498 1446q0 55 38.5 94t94 39t94.5 -39t39 -94t-39 -94t-94.5 -39t-94 39t-38.5 94z" />
<glyph unicode="j" d="M266 932v88h484v-987l-304 -520l-75 45l291 497v877h-396zM528 1446q0 55 39 94t94.5 39t94.5 -39t39 -94t-39 -94t-94.5 -39t-94.5 39t-39 94z" />
<glyph unicode="k" d="M299 -2v1538h88v-940h170l342 428l70 -53l-334 -420l424 -502l-70 -55l-430 512h-172v-508h-88z" />
<glyph unicode="l" d="M193 0v88h393v1448h90v-1448h393v-88h-876z" />
<glyph unicode="m" d="M18 965l56 69l174 -139q76 143 235 143q133 0 197 -104q80 104 199 104q233 0 233 -268v-770h-90v770q0 102 -36 141t-107 39q-127 0 -162 -141v-12v-797h-90v797q0 70 -37 111.5t-107 41.5q-57 0 -106 -31.5t-66 -99.5v-819h-90v805z" />
<glyph unicode="n" d="M27 963l49 73l221 -151q133 156 399 155q168 0 263.5 -90t95.5 -239v-711h-88v711q0 115 -71 177t-200 62q-242 0 -344 -141v-809h-88v799z" />
<glyph unicode="o" d="M199 510q0 227 127 389t305 162q180 0 306 -162t126 -389t-127 -389t-305 -162t-305 163t-127 388zM289 509.5q0 -190.5 100 -326.5t241.5 -136t242 136t100.5 326.5t-100.5 327t-242 136.5t-241.5 -136.5t-100 -327z" />
<glyph unicode="p" d="M20 958l43 78l281 -155q152 160 389 159q190 0 278.5 -122.5t88.5 -368.5q0 -281 -107.5 -415t-341.5 -134q-143 0 -252 39v-506h-90v1264zM399 133q113 -45 250 -45q188 0 275.5 102.5t87.5 358.5q0 233 -72 318t-207 85q-207 0 -334 -143v-676z" />
<glyph unicode="q" d="M225 518q0 287 101.5 404.5t339.5 117.5q176 0 340 -41v-1466h-88v512q-147 -45 -295 -45q-215 0 -306.5 124t-91.5 394zM313 518q0 -246 72 -338t238 -92q137 0 295 49v791q-115 25 -252 24q-203 0 -278 -92t-75 -342z" />
<glyph unicode="r" d="M170 961l43 77l281 -155q129 137 317 137h258v-88h-258q-158 0 -262 -123v-719h520v-90h-879v90h269v711z" />
<glyph unicode="s" d="M244 61l49 74q154 -88 332 -88q111 0 173 47t62 127q0 74 -58.5 129.5t-142.5 93.5l-167 81q-84 42 -142.5 111t-58.5 163q0 109 88 185.5t231 76.5q174 0 303 -60l-34 -77q-106 47 -269 47q-94 0 -159.5 -47t-65.5 -125q0 -70 58.5 -124t141.5 -93l165 -80 q82 -41 140 -109.5t58 -161.5q0 -123 -88 -197.5t-235 -74.5q-217 0 -381 102z" />
<glyph unicode="t" d="M141 930v90h359v360h90v-360h430v-90h-430v-592q0 -113 68.5 -181.5t181.5 -68.5h180v-88h-182q-145 0 -241.5 93t-96.5 245v592h-359z" />
<glyph unicode="u" d="M240 426v594h88v-594q0 -174 83 -276.5t220 -102.5q127 0 214 97.5t87 281.5v594h88v-594q0 -219 -110.5 -343t-278.5 -124q-172 0 -281.5 125t-109.5 342z" />
<glyph unicode="v" d="M180 1006l84 28l330 -946h74l329 946l84 -28l-350 -1006h-201z" />
<glyph unicode="w" d="M113 1012l86 14l151 -938h88l115 735h156l114 -735h86l152 938l88 -14l-164 -1012h-231l-123 795l-123 -795h-234z" />
<glyph unicode="x" d="M217 23l295 499l-264 475l78 43l264 -475h80l264 475l78 -43l-267 -475l297 -499l-77 -48l-295 502h-82l-293 -502z" />
<glyph unicode="y" d="M168 1006l84 30l373 -970l352 970l84 -30l-539 -1487l-84 30l162 451h-45z" />
<glyph unicode="z" d="M225 0v203l697 651v78h-684v88h774v-205l-699 -649v-76h719v-90h-807z" />
<glyph unicode="{" d="M346 489v91q139 0 195.5 59t56.5 209v311q0 199 92 294t307 95v-88q-170 0 -240.5 -65.5t-70.5 -235.5v-311q0 -236 -135 -313q135 -78 135 -314v-311q0 -170 70.5 -235.5t240.5 -65.5v-88q-215 0 -307 95t-92 294v311q0 145 -54.5 204.5t-185.5 63.5h-12z" />
<glyph unicode="|" d="M586 -158v1694h90v-1694h-90z" />
<glyph unicode="}" d="M262 -391q170 0 240.5 65.5t70.5 235.5v311q0 236 136 314q-135 78 -136 313v311q0 170 -70.5 235.5t-240.5 65.5v88q215 0 307.5 -95t92.5 -294v-311q0 -145 54 -204.5t185 -63.5h12v-91q-139 0 -195 -59t-56 -209v-311q0 -199 -92.5 -294t-307.5 -95v88z" />
<glyph unicode="~" d="M180 575q109 94 252 95q86 0 201 -41t192 -41q111 0 207 65l49 -73q-119 -82 -256 -82q-84 0 -198.5 41t-194.5 41q-113 0 -194 -74z" />
<glyph unicode="&#xa0;" />
<glyph unicode="&#xa1;" d="M498 1267.5q0 55.5 38.5 94.5t94 39t94.5 -39t39 -94.5t-39 -94t-94.5 -38.5t-94 38.5t-38.5 94zM586 0v883h90v-883h-90z" />
<glyph unicode="&#xa2;" d="M227 510q0 227 108.5 377.5t285.5 169.5v209h88v-207q221 -18 331 -225l-79 -41q-94 178 -293 178q-154 0 -253.5 -126t-99.5 -335q0 -199 97.5 -331t261.5 -132q115 0 193.5 66.5t115.5 177.5l86 -23q-37 -121 -130 -209t-230 -98v-207h-88v209q-178 20 -286 172 t-108 375z" />
<glyph unicode="&#xa3;" d="M172 526v88h215l80 490q20 129 113.5 202.5t222.5 73.5h180v-90h-180q-96 0 -164 -53t-82 -147l-76 -476h363v-88h-377l-68 -438h631v-88h-743l86 526h-201z" />
<glyph unicode="&#xa5;" d="M201 1360l80 37l348 -764l348 764l82 -37l-346 -754h315v-88h-354v-188h354v-88h-354v-242h-90v242h-351v88h351v188h-351v88h310z" />
<glyph unicode="&#xa6;" d="M586 -158v725h90v-725h-90zM586 813v723h90v-723h-90z" />
<glyph unicode="&#xa7;" d="M264 82l66 59q8 -8 25.5 -22.5t82 -37t137.5 -22.5q238 0 238 168q0 63 -54 105.5t-132 68t-156 57t-132 99.5t-54 170q0 139 131 240q-90 74 -90 202q0 106 71.5 175t214.5 69q76 0 140.5 -13.5t91.5 -27.5l24 -12l-47 -74q-63 39 -209 39q-197 0 -196 -156 q0 -57 28.5 -98t74.5 -64.5t101.5 -42t109.5 -41t100.5 -53t75 -87t28.5 -134.5q0 -150 -123 -243q90 -70 90 -179q0 -121 -84 -188.5t-242 -67.5q-94 0 -171.5 28t-108.5 54zM375 727q0 -51 19.5 -90t61.5 -65.5t77.5 -43t97 -39t92.5 -36.5q123 68 123 196q0 53 -19.5 92 t-60.5 64.5t-77 41t-95 35t-92 33.5q-23 -12 -47.5 -30.5t-52 -62.5t-27.5 -95z" />
<glyph unicode="&#xa8;" d="M276 1605.5q0 55.5 39 94.5t94.5 39t94.5 -39t39 -94.5t-39 -94t-94.5 -38.5t-94.5 38.5t-39 94zM717 1605.5q0 55.5 39 94.5t94 39t94 -39t39 -94.5t-39 -94t-94 -38.5t-94 38.5t-39 94z" />
<glyph unicode="&#xa9;" d="M121 686q0 297 148.5 506t359.5 209t360.5 -209t149.5 -506t-149.5 -506t-360.5 -209t-359.5 209t-148.5 506zM209 686q0 -260 123 -442.5t297 -182.5t297 182.5t123 442.5t-123 442.5t-297 182.5t-297 -182.5t-123 -442.5zM352 686q0 164 82 257t209 93q74 0 131 -32.5 t78 -65.5l22 -35l-77 -41q-4 10 -15.5 24.5t-50.5 38t-88 23.5q-90 0 -145.5 -68.5t-55.5 -193.5q0 -117 54.5 -189.5t140.5 -72.5q63 0 109.5 34t60.5 66l12 35l84 -29q-2 -8 -7 -21t-26.5 -46t-49 -58.5t-77 -47t-106.5 -21.5q-123 0 -204 97t-81 253z" />
<glyph unicode="&#xaa;" d="M172 258q0 113 82 197t221 84q180 0 410 -56v203q0 113 -84 189.5t-211 76.5q-162 0 -289 -37l-31 84q135 41 320 41q162 0 272.5 -101t110.5 -253v-455l278 -188l-49 -74l-293 197q-92 -82 -205.5 -134t-211.5 -52q-147 0 -233.5 80.5t-86.5 197.5zM260 258 q0 -76 58.5 -132t173.5 -56q98 0 207.5 60t185.5 134v127q-225 59 -410 60q-102 0 -158.5 -59.5t-56.5 -133.5z" />
<glyph unicode="&#xab;" d="M199 530v78l350 350l59 -63l-327 -326l327 -325l-59 -64zM573 530v78l351 350l59 -63l-328 -326l328 -325l-59 -64z" />
<glyph unicode="&#xad;" d="M295 526v88h672v-88h-672z" />
<glyph unicode="&#xae;" d="M176 862q0 223 133 381t320 158q188 0 321 -158t133 -381q0 -225 -133 -382.5t-321.5 -157.5t-320.5 158.5t-132 381.5zM266 862q0 -188 106.5 -320t256.5 -132q152 0 258 132t106 320q0 186 -106.5 318.5t-257.5 132.5q-150 0 -256.5 -132.5t-106.5 -318.5zM430 594v545 h254q74 0 117 -42t43 -108q0 -63 -33 -106t-92 -54l158 -206l-70 -54l-197 258h-92v-233h-88zM518 915h162q76 0 76 74q0 59 -72 60h-166v-134z" />
<glyph unicode="&#xaf;" d="M387 1536v88h492v-88h-492z" />
<glyph unicode="&#xb0;" d="M295 1085.5q0 139.5 98.5 237.5t237.5 98t237.5 -98t98.5 -237.5t-98.5 -237.5t-237.5 -98t-237.5 98t-98.5 237.5zM383 1085.5q0 -104.5 71.5 -176t176 -71.5t176.5 71.5t72 176t-72 176t-176.5 71.5t-176 -71.5t-71.5 -176z" />
<glyph unicode="&#xb1;" d="M233 53v88h795v-88h-795zM233 580v88h353v352h88v-352h354v-88h-354v-355h-88v355h-353z" />
<glyph unicode="&#xb2;" d="M215 0v162q68 82 228.5 260t242.5 283q172 219 172 374q0 111 -71.5 181.5t-200.5 70.5q-139 0 -295 -88l-47 74q70 45 166 74.5t176 29.5q166 0 263 -97t97 -245q0 -188 -190 -428l-128 -154l-172 -195l-153 -173v-39h705v-90h-793z" />
<glyph unicode="&#xb3;" d="M199 6l18 88q127 -27 287 -26q203 0 293 82.5t90 257.5q0 143 -71 213.5t-238 70.5h-216v90h213q279 74 279 308q0 113 -78 178t-198 65q-59 0 -136 -23.5t-133 -66.5l-55 70q66 51 158 79.5t166 28.5q162 0 263 -92t101 -239q0 -119 -58.5 -207t-162.5 -127 q254 -47 254 -348q0 -428 -471 -428q-176 -1 -305 26z" />
<glyph unicode="&#xb4;" d="M543 1520l293 290l59 -61l-293 -287z" />
<glyph unicode="&#xb6;" d="M61 1018q0 162 96.5 262t239.5 100h369v-1380h-90v623h-279q-133 0 -234.5 103.5t-101.5 291.5zM924 0v1378h90v-1378h-90z" />
<glyph unicode="&#xb7;" d="M498 510q0 55 38.5 94t94 39t94.5 -39t39 -94t-39 -94t-94.5 -39t-94 39t-38.5 94z" />
<glyph unicode="&#xb8;" d="M492 -371l20 82q53 -12 100 -12q61 0 97 19.5t36 52.5q0 43 -51 67.5t-141 24.5l51 213h92l-39 -139q174 -29 174 -166q0 -70 -59 -114t-160 -44q-57 0 -120 16z" />
<glyph unicode="&#xb9;" d="M209 0v88h424v1186l-381 -109l-25 84l496 144v-1305h393v-88h-907z" />
<glyph unicode="&#xba;" d="M199 510q0 227 127 389t305 162q180 0 306 -162t126 -389t-127 -389t-305 -162t-305 163t-127 388zM289 509.5q0 -190.5 100 -326.5t241.5 -136t242 136t100.5 326.5t-100.5 327t-242 136.5t-241.5 -136.5t-100 -327z" />
<glyph unicode="&#xbb;" d="M276 244l328 325l-328 326l60 63l350 -350v-78l-350 -350zM651 244l328 325l-328 326l60 63l350 -350v-78l-350 -350z" />
<glyph unicode="&#xbc;" horiz-adv-x="3777" d="M2686 403v170l539 807h153v-888h285v-89h-285v-403h-90v403h-602zM2774 492h514v825l-514 -770v-55zM1470 18l770 1387l78 -43l-770 -1387zM209 0v88h424v1186l-381 -109l-25 84l496 144v-1305h393v-88h-907z" />
<glyph unicode="&#xbd;" horiz-adv-x="3777" d="M2733 0v162q68 82 228.5 260t242.5 283q172 219 172 374q0 111 -71.5 181.5t-200.5 70.5q-139 0 -295 -88l-47 74q70 45 166 74.5t176 29.5q166 0 263 -97t97 -245q0 -188 -190 -428l-128 -154l-172 -195l-153 -173v-39h705v-90h-793zM1470 18l770 1387l78 -43 l-770 -1387zM209 0v88h424v1186l-381 -109l-25 84l496 144v-1305h393v-88h-907z" />
<glyph unicode="&#xbe;" horiz-adv-x="3777" d="M2686 403v170l539 807h153v-888h285v-89h-285v-403h-90v403h-602zM2774 492h514v825l-514 -770v-55zM1470 18l770 1387l78 -43l-770 -1387zM199 6l18 88q127 -27 287 -26q203 0 293 82.5t90 257.5q0 143 -71 213.5t-238 70.5h-216v90h213q279 74 279 308q0 113 -78 178 t-198 65q-59 0 -136 -23.5t-133 -66.5l-55 70q66 51 158 79.5t166 28.5q162 0 263 -92t101 -239q0 -119 -58.5 -207t-162.5 -127q254 -47 254 -348q0 -428 -471 -428q-176 -1 -305 26z" />
<glyph unicode="&#xbf;" d="M319 -104q0 84 26 154.5t61 121.5l70 100q36 49 61.5 113t25.5 137h90q0 -86 -25.5 -156.5t-61.5 -120.5l-71 -99q-36 -48 -61.5 -111.5t-25.5 -138.5q0 -96 52 -151.5t148 -55.5q59 0 104.5 18.5t67 45t34.5 54t15 46.5l2 18h89q0 -10 -3.5 -28.5t-21.5 -65.5t-48 -82 t-92.5 -64.5t-146.5 -29.5q-131 0 -210 80t-79 215zM475 907.5q0 55.5 39 94t94.5 38.5t94 -38.5t38.5 -94t-38.5 -94.5t-94 -39t-94.5 39t-39 94.5z" />
<glyph unicode="&#xc0;" d="M145 12l373 1368h225l373 -1368l-86 -22l-160 585h-479l-160 -585zM371 1749l59 61l293 -290l-59 -58zM414 664h432l-170 626h-90z" />
<glyph unicode="&#xc1;" d="M145 12l373 1368h225l373 -1368l-86 -22l-160 585h-479l-160 -585zM414 664h432l-170 626h-90zM543 1520l293 290l59 -61l-293 -287z" />
<glyph unicode="&#xc2;" d="M145 12l373 1368h225l373 -1368l-86 -22l-160 585h-479l-160 -585zM340 1526l293 286l295 -286l-62 -64l-233 234l-234 -232zM414 664h432l-170 626h-90z" />
<glyph unicode="&#xc3;" d="M145 12l373 1368h225l373 -1368l-86 -22l-160 585h-479l-160 -585zM348 1565q6 10 19.5 26.5t58.5 44t96 27.5q47 0 111.5 -32t97.5 -32q72 0 115 66l74 -51q-8 -12 -22.5 -30.5t-63 -48.5t-99.5 -30q-59 0 -121.5 32t-91 32t-53.5 -14.5t-35 -26.5l-10 -15zM414 664h432 l-170 626h-90z" />
<glyph unicode="&#xc4;" d="M145 12l373 1368h225l373 -1368l-86 -22l-160 585h-479l-160 -585zM276 1605.5q0 55.5 39 94.5t94.5 39t94.5 -39t39 -94.5t-39 -94t-94.5 -38.5t-94.5 38.5t-39 94zM414 664h432l-170 626h-90zM717 1605.5q0 55.5 39 94.5t94 39t94 -39t39 -94.5t-39 -94t-94 -38.5 t-94 38.5t-39 94z" />
<glyph unicode="&#xc5;" d="M145 12l373 1368h225l373 -1368l-86 -22l-160 585h-479l-160 -585zM412 1683.5q0 92.5 64.5 157t156.5 64.5t156.5 -64.5t64.5 -157t-64.5 -157t-156.5 -64.5t-156.5 64.5t-64.5 157zM414 664h432l-170 626h-90zM500 1683.5q0 -55.5 39 -94.5t94 -39t94 39t39 94.5 t-39 94.5t-94 39t-94 -39t-39 -94.5z" />
<glyph unicode="&#xc6;" d="M55 14l455 1366h643v-88h-410v-534h285v-88h-285v-582h410v-88h-498v502h-346l-170 -516zM340 590h315v702h-82z" />
<glyph unicode="&#xc7;" d="M217 690q0 340 122 535.5t320 195.5q141 0 227.5 -80.5t125.5 -191.5l-84 -31q-82 213 -269 213q-160 0 -257 -173t-97 -468q0 -283 98.5 -463t245.5 -180q121 0 203 98.5t115 233.5l88 -21q-33 -137 -122 -252.5t-222 -140.5l-37 -131q174 -29 174 -166 q0 -70 -59.5 -113.5t-159.5 -43.5q-57 0 -121 16l20 82q53 -12 101 -12q61 0 97 19t36 52q0 43 -51.5 67.5t-141.5 24.5l47 201q-182 18 -290.5 223t-108.5 506z" />
<glyph unicode="&#xc8;" d="M313 0v1380h658v-88h-568v-534h410v-88h-410v-582h568v-88h-658zM371 1749l59 61l293 -290l-59 -58z" />
<glyph unicode="&#xc9;" d="M313 0v1380h658v-88h-568v-534h410v-88h-410v-582h568v-88h-658zM543 1520l293 290l59 -61l-293 -287z" />
<glyph unicode="&#xca;" d="M313 0v1380h658v-88h-568v-534h410v-88h-410v-582h568v-88h-658zM340 1526l293 286l295 -286l-62 -64l-233 234l-234 -232z" />
<glyph unicode="&#xcb;" d="M276 1605.5q0 55.5 39 94.5t94.5 39t94.5 -39t39 -94.5t-39 -94t-94.5 -38.5t-94.5 38.5t-39 94zM313 0v1380h658v-88h-568v-534h410v-88h-410v-582h568v-88h-658zM717 1605.5q0 55.5 39 94.5t94 39t94 -39t39 -94.5t-39 -94t-94 -38.5t-94 38.5t-39 94z" />
<glyph unicode="&#xcc;" d="M193 0v88h393v1204h-252v88h594v-88h-252v-1204h393v-88h-876zM371 1749l59 61l293 -290l-59 -58z" />
<glyph unicode="&#xcd;" d="M193 0v88h393v1204h-252v88h594v-88h-252v-1204h393v-88h-876zM543 1520l293 290l59 -61l-293 -287z" />
<glyph unicode="&#xce;" d="M193 0v88h393v1204h-252v88h594v-88h-252v-1204h393v-88h-876zM340 1526l293 286l295 -286l-62 -64l-233 234l-234 -232z" />
<glyph unicode="&#xcf;" d="M193 0v88h393v1204h-252v88h594v-88h-252v-1204h393v-88h-876zM276 1605.5q0 55.5 39 94.5t94.5 39t94.5 -39t39 -94.5t-39 -94t-94.5 -38.5t-94.5 38.5t-39 94zM717 1605.5q0 55.5 39 94.5t94 39t94 -39t39 -94.5t-39 -94t-94 -38.5t-94 38.5t-39 94z" />
<glyph unicode="&#xd0;" d="M102 670v88h160v622h313q180 0 274.5 -49t139.5 -183t45 -394q0 -193 -9 -308.5t-35.5 -212t-80 -141.5t-135.5 -68.5t-209 -23.5h-303v670h-160zM350 88h215q90 0 143.5 7t101.5 34t70.5 67t39 119.5t21.5 180t5 258.5q0 180 -15.5 282.5t-60.5 161.5t-110.5 76.5 t-184.5 17.5h-225v-534h283v-88h-283v-582z" />
<glyph unicode="&#xd1;" d="M233 0v1380h216l425 -1292h62v1292h90v-1380h-215l-426 1292h-63v-1292h-89zM348 1565q6 10 19.5 26.5t58.5 44t96 27.5q47 0 111.5 -32t97.5 -32q72 0 115 66l74 -51q-8 -12 -22.5 -30.5t-63 -48.5t-99.5 -30q-59 0 -121.5 32t-91 32t-53.5 -14.5t-35 -26.5l-10 -15z " />
<glyph unicode="&#xd2;" d="M186 690q0 301 130 516t313 215q184 0 314 -215t130 -516t-130 -516t-314 -215q-182 0 -312.5 215t-130.5 516zM274 690q0 -262 104.5 -450.5t250.5 -188.5q147 0 250.5 188.5t103.5 450.5q0 264 -103.5 451.5t-250.5 187.5q-145 0 -250 -188.5t-105 -450.5zM371 1749 l59 61l293 -290l-59 -58z" />
<glyph unicode="&#xd3;" d="M186 690q0 301 130 516t313 215q184 0 314 -215t130 -516t-130 -516t-314 -215q-182 0 -312.5 215t-130.5 516zM274 690q0 -262 104.5 -450.5t250.5 -188.5q147 0 250.5 188.5t103.5 450.5q0 264 -103.5 451.5t-250.5 187.5q-145 0 -250 -188.5t-105 -450.5zM543 1520 l293 290l59 -61l-293 -287z" />
<glyph unicode="&#xd4;" d="M186 690q0 301 130 516t313 215q184 0 314 -215t130 -516t-130 -516t-314 -215q-182 0 -312.5 215t-130.5 516zM274 690q0 -262 104.5 -450.5t250.5 -188.5q147 0 250.5 188.5t103.5 450.5q0 264 -103.5 451.5t-250.5 187.5q-145 0 -250 -188.5t-105 -450.5zM340 1526 l293 286l295 -286l-62 -64l-233 234l-234 -232z" />
<glyph unicode="&#xd5;" d="M186 690q0 301 130 516t313 215q184 0 314 -215t130 -516t-130 -516t-314 -215q-182 0 -312.5 215t-130.5 516zM274 690q0 -262 104.5 -450.5t250.5 -188.5q147 0 250.5 188.5t103.5 450.5q0 264 -103.5 451.5t-250.5 187.5q-145 0 -250 -188.5t-105 -450.5zM348 1565 q6 10 19.5 26.5t58.5 44t96 27.5q47 0 111.5 -32t97.5 -32q72 0 115 66l74 -51q-8 -12 -22.5 -30.5t-63 -48.5t-99.5 -30q-59 0 -121.5 32t-91 32t-53.5 -14.5t-35 -26.5l-10 -15z" />
<glyph unicode="&#xd6;" d="M186 690q0 301 130 516t313 215q184 0 314 -215t130 -516t-130 -516t-314 -215q-182 0 -312.5 215t-130.5 516zM274 690q0 -262 104.5 -450.5t250.5 -188.5q147 0 250.5 188.5t103.5 450.5q0 264 -103.5 451.5t-250.5 187.5q-145 0 -250 -188.5t-105 -450.5zM276 1605.5 q0 55.5 39 94.5t94.5 39t94.5 -39t39 -94.5t-39 -94t-94.5 -38.5t-94.5 38.5t-39 94zM717 1605.5q0 55.5 39 94.5t94 39t94 -39t39 -94.5t-39 -94t-94 -38.5t-94 38.5t-39 94z" />
<glyph unicode="&#xd7;" d="M242 244l325 325l-325 326l61 59l324 -325l329 329l60 -63l-328 -326l328 -325l-60 -64l-329 328l-324 -324z" />
<glyph unicode="&#xd8;" d="M186 690q0 301 130 516t313 215q154 0 276 -159l80 139l76 -43l-103 -180q115 -207 115 -488q0 -301 -130 -516t-314 -215q-154 0 -275 160l-80 -142l-77 46l102 180q-113 208 -113 487zM274 690q0 -223 78 -397l506 885q-98 152 -229 151q-145 0 -250 -188.5 t-105 -450.5zM401 201q100 -150 228 -150q147 0 250.5 188.5t103.5 450.5q0 223 -78 395z" />
<glyph unicode="&#xd9;" d="M236 502v878h90v-878q0 -453 303 -453q305 0 305 453v878h90v-878q0 -274 -105.5 -408.5t-289.5 -134.5q-176 0 -284.5 129t-108.5 414zM371 1749l59 61l293 -290l-59 -58z" />
<glyph unicode="&#xda;" d="M236 502v878h90v-878q0 -453 303 -453q305 0 305 453v878h90v-878q0 -274 -105.5 -408.5t-289.5 -134.5q-176 0 -284.5 129t-108.5 414zM543 1520l293 290l59 -61l-293 -287z" />
<glyph unicode="&#xdb;" d="M236 502v878h90v-878q0 -453 303 -453q305 0 305 453v878h90v-878q0 -274 -105.5 -408.5t-289.5 -134.5q-176 0 -284.5 129t-108.5 414zM340 1526l293 286l295 -286l-62 -64l-233 234l-234 -232z" />
<glyph unicode="&#xdc;" d="M236 502v878h90v-878q0 -453 303 -453q305 0 305 453v878h90v-878q0 -274 -105.5 -408.5t-289.5 -134.5q-176 0 -284.5 129t-108.5 414zM276 1605.5q0 55.5 39 94.5t94.5 39t94.5 -39t39 -94.5t-39 -94t-94.5 -38.5t-94.5 38.5t-39 94zM717 1605.5q0 55.5 39 94.5t94 39 t94 -39t39 -94.5t-39 -94t-94 -38.5t-94 38.5t-39 94z" />
<glyph unicode="&#xdd;" d="M201 1360l80 37l348 -764l348 764l82 -37l-385 -842v-518h-90v518zM543 1520l293 290l59 -61l-293 -287z" />
<glyph unicode="&#xde;" d="M307 0v1380h90v-278h340q143 0 229.5 -95.5t86.5 -256.5q0 -190 -99.5 -298t-230.5 -108h-326v-344h-90zM397 432h326q98 0 169 84t71 234q0 121 -58.5 192.5t-167.5 71.5h-340v-582z" />
<glyph unicode="&#xdf;" d="M233 27v1058q0 207 108 329t294 122q147 0 253.5 -93t106.5 -247q0 -53 -19.5 -109.5t-37.5 -87.5l-20 -28q-94 0 -160 -47t-66 -125q0 -66 36 -117t89 -82l116 -66l115.5 -70t89.5 -94.5t36 -138.5q0 -123 -88.5 -197.5t-235.5 -74.5q-217 0 -381 102l49 74 q154 -88 332 -88q111 0 173 47t62 127q0 74 -50 129.5t-122 93.5l-143 81q-72 42 -122 111t-50 163q0 98 73.5 170.5t194.5 87.5q39 61 39 139q0 115 -78.5 182.5t-191.5 67.5q-150 0 -230.5 -95.5t-80.5 -265.5v-1058h-91z" />
<glyph unicode="&#xe0;" d="M172 258q0 113 82 197t221 84q180 0 410 -56v203q0 113 -84 189.5t-211 76.5q-162 0 -289 -37l-31 84q135 41 320 41q162 0 272.5 -101t110.5 -253v-455l278 -188l-49 -74l-293 197q-92 -82 -205.5 -134t-211.5 -52q-147 0 -233.5 80.5t-86.5 197.5zM260 258 q0 -76 58.5 -132t173.5 -56q98 0 207.5 60t185.5 134v127q-225 59 -410 60q-102 0 -158.5 -59.5t-56.5 -133.5zM328 1389l59 61l293 -291l-59 -57z" />
<glyph unicode="&#xe1;" d="M172 258q0 113 82 197t221 84q180 0 410 -56v203q0 113 -84 189.5t-211 76.5q-162 0 -289 -37l-31 84q135 41 320 41q162 0 272.5 -101t110.5 -253v-455l278 -188l-49 -74l-293 197q-92 -82 -205.5 -134t-211.5 -52q-147 0 -233.5 80.5t-86.5 197.5zM260 258 q0 -76 58.5 -132t173.5 -56q98 0 207.5 60t185.5 134v127q-225 59 -410 60q-102 0 -158.5 -59.5t-56.5 -133.5zM500 1159l293 291l59 -61l-293 -287z" />
<glyph unicode="&#xe2;" d="M172 258q0 113 82 197t221 84q180 0 410 -56v203q0 113 -84 189.5t-211 76.5q-162 0 -289 -37l-31 84q135 41 320 41q162 0 272.5 -101t110.5 -253v-455l278 -188l-49 -74l-293 197q-92 -82 -205.5 -134t-211.5 -52q-147 0 -233.5 80.5t-86.5 197.5zM260 258 q0 -76 58.5 -132t173.5 -56q98 0 207.5 60t185.5 134v127q-225 59 -410 60q-102 0 -158.5 -59.5t-56.5 -133.5zM297 1165l293 287l295 -287l-62 -63l-233 233l-234 -231z" />
<glyph unicode="&#xe3;" d="M172 258q0 113 82 197t221 84q180 0 410 -56v203q0 113 -84 189.5t-211 76.5q-162 0 -289 -37l-31 84q135 41 320 41q162 0 272.5 -101t110.5 -253v-455l278 -188l-49 -74l-293 197q-92 -82 -205.5 -134t-211.5 -52q-147 0 -233.5 80.5t-86.5 197.5zM260 258 q0 -76 58.5 -132t173.5 -56q98 0 207.5 60t185.5 134v127q-225 59 -410 60q-102 0 -158.5 -59.5t-56.5 -133.5zM305 1204q6 10 19.5 26.5t58.5 44.5t96 28q47 0 111.5 -32t97.5 -32q72 0 115 66l74 -52q-8 -12 -22.5 -30.5t-63 -48t-99.5 -29.5q-59 0 -121.5 31.5t-91 31.5 t-53.5 -14t-35 -27l-10 -14z" />
<glyph unicode="&#xe4;" d="M172 258q0 113 82 197t221 84q180 0 410 -56v203q0 113 -84 189.5t-211 76.5q-162 0 -289 -37l-31 84q135 41 320 41q162 0 272.5 -101t110.5 -253v-455l278 -188l-49 -74l-293 197q-92 -82 -205.5 -134t-211.5 -52q-147 0 -233.5 80.5t-86.5 197.5zM233 1245q0 55 39 94 t94.5 39t94.5 -39t39 -94t-39 -94t-94.5 -39t-94.5 39t-39 94zM260 258q0 -76 58.5 -132t173.5 -56q98 0 207.5 60t185.5 134v127q-225 59 -410 60q-102 0 -158.5 -59.5t-56.5 -133.5zM674 1245q0 55 39 94t94 39t94 -39t39 -94t-39 -94t-94 -39t-94 39t-39 94z" />
<glyph unicode="&#xe5;" d="M172 258q0 113 82 197t221 84q180 0 410 -56v203q0 113 -84 189.5t-211 76.5q-162 0 -289 -37l-31 84q135 41 320 41q162 0 272.5 -101t110.5 -253v-455l278 -188l-49 -74l-293 197q-92 -82 -205.5 -134t-211.5 -52q-147 0 -233.5 80.5t-86.5 197.5zM260 258 q0 -76 58.5 -132t173.5 -56q98 0 207.5 60t185.5 134v127q-225 59 -410 60q-102 0 -158.5 -59.5t-56.5 -133.5zM369 1323q0 92 64.5 156.5t156.5 64.5t156.5 -64.5t64.5 -156.5t-64.5 -156.5t-156.5 -64.5t-156.5 64.5t-64.5 156.5zM457 1323q0 -55 39 -94t94 -39t94 39 t39 94t-39 94t-94 39t-94 -39t-39 -94z" />
<glyph unicode="&#xe6;" d="M100 178q0 51 20.5 101.5t68 101.5t141.5 85t225 38v41q-8 219 -50 322.5t-134 103.5q-104 0 -174 -97l-4 -6l-72 54l10 15q6 9 30.5 32.5t51.5 42t70 34t88 15.5q166 0 231 -199q72 199 223 199q102 0 183.5 -113.5t78.5 -384.5h-444q2 -35 2 -100v-35q12 -381 180 -381 q63 0 105.5 56.5t52.5 113.5l12 57l86 -18l-5 -32q-3 -19 -21.5 -70.5t-44 -91t-74.5 -71.5t-113 -32q-168 0 -231 215q-45 -104 -120 -159.5t-159 -55.5q-104 0 -158.5 60.5t-54.5 158.5zM190 180q0 -133 119 -133q98 0 173 109.5t75 259.5q-184 -8 -275.5 -73t-91.5 -163z M649 651h348q-4 55 -14 106.5t-28.5 101.5t-52.5 81t-77 31q-70 0 -116 -82t-60 -238z" />
<glyph unicode="&#xe7;" d="M227 510q0 244 123 397.5t318 153.5q252 0 372 -227l-79 -41q-94 178 -293 178q-154 0 -253.5 -126t-99.5 -335q0 -199 97.5 -331t261.5 -132q115 0 193.5 66.5t115.5 177.5l86 -23q-37 -115 -122 -200.5t-214 -104.5l-35 -129q174 -29 174 -166q0 -70 -59 -113.5 t-160 -43.5q-57 0 -121 16l21 82q53 -12 100 -12q61 0 97 19t36 52q0 43 -51 67.5t-141 24.5l47 201q-186 12 -300 165t-114 384z" />
<glyph unicode="&#xe8;" d="M213 510q0 233 116.5 392t315.5 159q176 0 292 -141.5t107 -356.5h-741q-2 -18 -2 -53q0 -209 94 -336t250 -127q215 0 305 229l86 -26q-47 -127 -146 -209t-247 -82q-193 0 -311.5 151.5t-118.5 399.5zM313 651h637q-14 143 -101 231.5t-204 88.5q-123 0 -212 -86.5 t-120 -233.5zM371 1389l59 61l293 -291l-59 -57z" />
<glyph unicode="&#xe9;" d="M213 510q0 233 116.5 392t315.5 159q176 0 292 -141.5t107 -356.5h-741q-2 -18 -2 -53q0 -209 94 -336t250 -127q215 0 305 229l86 -26q-47 -127 -146 -209t-247 -82q-193 0 -311.5 151.5t-118.5 399.5zM313 651h637q-14 143 -101 231.5t-204 88.5q-123 0 -212 -86.5 t-120 -233.5zM543 1159l293 291l59 -61l-293 -287z" />
<glyph unicode="&#xea;" d="M213 510q0 233 116.5 392t315.5 159q176 0 292 -141.5t107 -356.5h-741q-2 -18 -2 -53q0 -209 94 -336t250 -127q215 0 305 229l86 -26q-47 -127 -146 -209t-247 -82q-193 0 -311.5 151.5t-118.5 399.5zM313 651h637q-14 143 -101 231.5t-204 88.5q-123 0 -212 -86.5 t-120 -233.5zM340 1165l293 287l295 -287l-62 -63l-233 233l-234 -231z" />
<glyph unicode="&#xeb;" d="M213 510q0 233 116.5 392t315.5 159q176 0 292 -141.5t107 -356.5h-741q-2 -18 -2 -53q0 -209 94 -336t250 -127q215 0 305 229l86 -26q-47 -127 -146 -209t-247 -82q-193 0 -311.5 151.5t-118.5 399.5zM276 1245q0 55 39 94t94.5 39t94.5 -39t39 -94t-39 -94t-94.5 -39 t-94.5 39t-39 94zM313 651h637q-14 143 -101 231.5t-204 88.5q-123 0 -212 -86.5t-120 -233.5zM717 1245q0 55 39 94t94 39t94 -39t39 -94t-39 -94t-94 -39t-94 39t-39 94z" />
<glyph unicode="&#xec;" d="M238 0v90h393v842h-393v88h483v-930h393v-90h-876zM297 1389l59 61l293 -291l-59 -57z" />
<glyph unicode="&#xed;" d="M238 0v90h393v842h-393v88h483v-930h393v-90h-876zM469 1159l293 291l59 -61l-293 -287z" />
<glyph unicode="&#xee;" d="M238 0v90h393v842h-393v88h483v-930h393v-90h-876zM266 1165l293 287l295 -287l-61 -63l-234 233l-233 -231z" />
<glyph unicode="&#xef;" d="M203 1245q0 55 39 94t94 39t94 -39t39 -94t-39 -94t-94 -39t-94 39t-39 94zM238 0v90h393v842h-393v88h483v-930h393v-90h-876zM643 1245q0 55 39 94t94 39t94 -39t39 -94t-39 -94t-94 -39t-94 39t-39 94z" />
<glyph unicode="&#xf0;" d="M217 418q0 229 99.5 339.5t301.5 110.5q152 0 271 -47q-53 233 -170 402l-236 -136l-45 76l228 131q-86 98 -193 166l45 76q123 -76 227 -197l248 144l45 -76l-239 -137q223 -322 223 -844q0 -229 -93 -348t-311 -119q-401 0 -401 459zM305 417.5q0 -196.5 75 -283.5 t238 -87q160 0 237 81t77 298q0 145 -23 291q-143 63 -291 63q-162 0 -237.5 -83t-75.5 -279.5z" />
<glyph unicode="&#xf1;" d="M27 963l49 73l221 -151q133 156 399 155q168 0 263.5 -90t95.5 -239v-711h-88v711q0 115 -71 177t-200 62q-242 0 -344 -141v-809h-88v799zM348 1204q6 10 19.5 26.5t58.5 44.5t96 28q47 0 111.5 -32t97.5 -32q72 0 115 66l74 -52q-8 -12 -22.5 -30.5t-63 -48 t-99.5 -29.5q-59 0 -121.5 31.5t-91 31.5t-53.5 -14t-35 -27l-10 -14z" />
<glyph unicode="&#xf2;" d="M199 510q0 227 127 389t305 162q180 0 306 -162t126 -389t-127 -389t-305 -162t-305 163t-127 388zM289 509.5q0 -190.5 100 -326.5t241.5 -136t242 136t100.5 326.5t-100.5 327t-242 136.5t-241.5 -136.5t-100 -327zM371 1389l59 61l293 -291l-59 -57z" />
<glyph unicode="&#xf3;" d="M199 510q0 227 127 389t305 162q180 0 306 -162t126 -389t-127 -389t-305 -162t-305 163t-127 388zM289 509.5q0 -190.5 100 -326.5t241.5 -136t242 136t100.5 326.5t-100.5 327t-242 136.5t-241.5 -136.5t-100 -327zM543 1159l293 291l59 -61l-293 -287z" />
<glyph unicode="&#xf4;" d="M199 510q0 227 127 389t305 162q180 0 306 -162t126 -389t-127 -389t-305 -162t-305 163t-127 388zM289 509.5q0 -190.5 100 -326.5t241.5 -136t242 136t100.5 326.5t-100.5 327t-242 136.5t-241.5 -136.5t-100 -327zM340 1165l293 287l295 -287l-62 -63l-233 233 l-234 -231z" />
<glyph unicode="&#xf5;" d="M199 510q0 227 127 389t305 162q180 0 306 -162t126 -389t-127 -389t-305 -162t-305 163t-127 388zM289 509.5q0 -190.5 100 -326.5t241.5 -136t242 136t100.5 326.5t-100.5 327t-242 136.5t-241.5 -136.5t-100 -327zM348 1204q6 10 19.5 26.5t58.5 44.5t96 28 q47 0 111.5 -32t97.5 -32q72 0 115 66l74 -52q-8 -12 -22.5 -30.5t-63 -48t-99.5 -29.5q-59 0 -121.5 31.5t-91 31.5t-53.5 -14t-35 -27l-10 -14z" />
<glyph unicode="&#xf6;" d="M199 510q0 227 127 389t305 162q180 0 306 -162t126 -389t-127 -389t-305 -162t-305 163t-127 388zM276 1245q0 55 39 94t94.5 39t94.5 -39t39 -94t-39 -94t-94.5 -39t-94.5 39t-39 94zM289 509.5q0 -190.5 100 -326.5t241.5 -136t242 136t100.5 326.5t-100.5 327 t-242 136.5t-241.5 -136.5t-100 -327zM717 1245q0 55 39 94t94 39t94 -39t39 -94t-39 -94t-94 -39t-94 39t-39 94z" />
<glyph unicode="&#xf7;" d="M233 467v88h795v-88h-795zM498 112.5q0 55.5 38.5 94.5t94 39t94.5 -39t39 -94.5t-39 -94t-94.5 -38.5t-94 38.5t-38.5 94zM498 907.5q0 55.5 38.5 94t94 38.5t94.5 -38.5t39 -94t-39 -94.5t-94.5 -39t-94 39t-38.5 94.5z" />
<glyph unicode="&#xf8;" d="M199 510q0 227 127 389t305 162q152 0 270 -125l82 106l72 -53l-94 -125q102 -156 102 -354q0 -225 -127 -388t-305 -163q-152 0 -271 119l-81 -109l-72 54l96 127q-104 157 -104 360zM289 510q0 -158 71 -285l488 639q-96 106 -217 107q-141 0 -241.5 -136.5 t-100.5 -324.5zM416 152q94 -104 215 -105q141 0 241.5 136t100.5 327q0 156 -72 278z" />
<glyph unicode="&#xf9;" d="M240 426v594h88v-594q0 -174 83 -276.5t220 -102.5q127 0 214 97.5t87 281.5v594h88v-594q0 -219 -110.5 -343t-278.5 -124q-172 0 -281.5 125t-109.5 342zM371 1389l59 61l293 -291l-59 -57z" />
<glyph unicode="&#xfa;" d="M240 426v594h88v-594q0 -174 83 -276.5t220 -102.5q127 0 214 97.5t87 281.5v594h88v-594q0 -219 -110.5 -343t-278.5 -124q-172 0 -281.5 125t-109.5 342zM543 1159l293 291l59 -61l-293 -287z" />
<glyph unicode="&#xfb;" d="M240 426v594h88v-594q0 -174 83 -276.5t220 -102.5q127 0 214 97.5t87 281.5v594h88v-594q0 -219 -110.5 -343t-278.5 -124q-172 0 -281.5 125t-109.5 342zM340 1165l293 287l295 -287l-62 -63l-233 233l-234 -231z" />
<glyph unicode="&#xfc;" d="M240 426v594h88v-594q0 -174 83 -276.5t220 -102.5q127 0 214 97.5t87 281.5v594h88v-594q0 -219 -110.5 -343t-278.5 -124q-172 0 -281.5 125t-109.5 342zM276 1245q0 55 39 94t94.5 39t94.5 -39t39 -94t-39 -94t-94.5 -39t-94.5 39t-39 94zM717 1245q0 55 39 94t94 39 t94 -39t39 -94t-39 -94t-94 -39t-94 39t-39 94z" />
<glyph unicode="&#xfd;" d="M168 1006l84 30l373 -970l352 970l84 -30l-539 -1487l-84 30l162 451h-45zM543 1159l293 291l59 -61l-293 -287z" />
<glyph unicode="&#xfe;" d="M309 -467v2003h90v-606q141 111 334 110q190 0 278.5 -122.5t88.5 -368.5q0 -281 -107.5 -415t-341.5 -134q-143 0 -252 39v-506h-90zM399 133q113 -45 250 -45q188 0 275.5 102.5t87.5 358.5q0 233 -72 318t-207 85q-207 0 -334 -143v-676z" />
<glyph unicode="&#xff;" d="M168 1006l84 30l373 -970l352 970l84 -30l-539 -1487l-84 30l162 451h-45zM276 1245q0 55 39 94t94.5 39t94.5 -39t39 -94t-39 -94t-94.5 -39t-94.5 39t-39 94zM717 1245q0 55 39 94t94 39t94 -39t39 -94t-39 -94t-94 -39t-94 39t-39 94z" />
<glyph unicode="&#x152;" d="M121 686q0 297 130 497.5t314 200.5l78 -4h469v-90h-410v-532h285v-88h-285v-582h410v-88h-438q-45 -12 -105 -12q-190 0 -319 203.5t-129 494.5zM209 686q0 -254 106.5 -431t249.5 -177l49 2v1214q-18 2 -49 2q-143 0 -249.5 -178t-106.5 -432z" />
<glyph unicode="&#x153;" d="M113 506q0 238 75.5 396.5t206.5 158.5q147 0 221 -217q68 217 230 217q102 0 183 -113.5t79 -384.5h-444v-57v-23q4 -434 182 -434q63 0 105 57.5t53 114.5l12 55l86 -18q-2 -12 -5 -32.5t-21.5 -72t-44 -90t-75 -71.5t-112.5 -33q-166 0 -230 207q-70 -207 -219 -207 q-127 0 -204.5 150.5t-77.5 396.5zM201 506q0 -193 54 -325t140 -132q78 0 128 122t52 314v21q0 193 -48 330t-132 137t-139 -135t-55 -332zM670 653h348q-4 55 -14.5 106.5t-29 101.5t-52 81t-76.5 31q-68 0 -115 -82t-61 -238z" />
<glyph unicode="&#x178;" d="M201 1360l80 37l348 -764l348 764l82 -37l-385 -842v-518h-90v518zM276 1605.5q0 55.5 39 94.5t94.5 39t94.5 -39t39 -94.5t-39 -94t-94.5 -38.5t-94.5 38.5t-39 94zM717 1605.5q0 55.5 39 94.5t94 39t94 -39t39 -94.5t-39 -94t-94 -38.5t-94 38.5t-39 94z" />
<glyph unicode="&#x2c6;" d="M340 1526l293 286l295 -286l-62 -64l-233 234l-234 -232z" />
<glyph unicode="&#x2dc;" d="M348 1565q6 10 19.5 26.5t58.5 44t96 27.5q47 0 111.5 -32t97.5 -32q72 0 115 66l74 -51q-8 -12 -22.5 -30.5t-63 -48.5t-99.5 -30q-59 0 -121.5 32t-91 32t-53.5 -14.5t-35 -26.5l-10 -15z" />
<glyph unicode="&#x2013;" d="M233 526v88h795v-88h-795z" />
<glyph unicode="&#x2014;" d="M131 526v88h999v-88h-999z" />
<glyph unicode="&#x2018;" d="M457 1096q0 43 24 78l228 395l75 -43l-168 -299q47 -10 77 -46t30 -85q0 -55 -39 -94t-94 -39t-94 39t-39 94z" />
<glyph unicode="&#x2019;" d="M451 1006l167 299q-47 10 -76.5 45.5t-29.5 85.5q0 55 39 94t94 39t94 -39t39 -94q0 -43 -24 -78l-228 -395z" />
<glyph unicode="&#x201a;" d="M436 -317l168 299q-47 10 -76.5 45.5t-29.5 85.5q0 55 38.5 94t94 39t94.5 -39t39 -94q0 -43 -25 -78l-227 -395z" />
<glyph unicode="&#x201c;" d="M258 1096q0 43 25 78l227 395l76 -43l-168 -299q47 -10 76.5 -46t29.5 -85q0 -55 -39 -94t-94 -39t-94 39t-39 94zM647 1096q0 43 25 78l227 395l76 -43l-168 -299q47 -10 76.5 -46t29.5 -85q0 -55 -38.5 -94t-94 -39t-94.5 39t-39 94z" />
<glyph unicode="&#x201d;" d="M279 1006l167 299q-47 10 -76.5 45.5t-29.5 85.5q0 55 39 94t94 39t94 -39t39 -94q0 -43 -24 -78l-228 -395zM668 1006l168 299q-47 10 -77 45.5t-30 85.5q0 55 39 94t94.5 39t94 -39t38.5 -94q0 -43 -24 -78l-228 -395z" />
<glyph unicode="&#x201e;" d="M231 -317l168 299q-47 10 -76.5 45.5t-29.5 85.5q0 55 39 94t94 39t94 -39t39 -94q0 -43 -24 -78l-228 -395zM621 -317l167 299q-47 10 -76.5 45.5t-29.5 85.5q0 55 39 94t94 39t94 -39t39 -94q0 -43 -24 -78l-228 -395z" />
<glyph unicode="&#x2022;" d="M326 616.5q0 141.5 89 240.5t216 99t216 -99t89 -240.5t-89 -241t-216 -99.5t-216 99.5t-89 241z" />
<glyph unicode="&#x2026;" d="M68 112.5q0 55.5 38.5 94.5t94 39t94.5 -39t39 -94.5t-39 -94t-94.5 -38.5t-94 38.5t-38.5 94zM498 112.5q0 55.5 38.5 94.5t94 39t94.5 -39t39 -94.5t-39 -94t-94.5 -38.5t-94 38.5t-38.5 94zM928 112.5q0 55.5 39 94.5t94 39t94 -39t39 -94.5t-39 -94t-94 -38.5 t-94 38.5t-39 94z" />
<glyph unicode="&#x2039;" d="M383 530v78l350 350l60 -63l-328 -326l328 -325l-60 -64z" />
<glyph unicode="&#x203a;" d="M467 244l328 325l-328 326l59 63l351 -350v-78l-351 -350z" />
<glyph unicode="&#x2044;" d="M211 18l770 1387l78 -43l-770 -1387z" />
<glyph unicode="&#x20ac;" d="M119 528v88h139v66q0 84 4 123h-143v88h153q35 244 150 378t278 134q141 0 227.5 -81t125.5 -191l-84 -31q-82 213 -269 213q-129 0 -218 -110.5t-122 -311.5h553v-88h-563q-4 -78 -4 -123v-66h567v-88h-559q27 -219 118 -349t218 -130q121 0 203 98.5t115 233.5l88 -21 q-35 -154 -140.5 -276.5t-265.5 -122.5q-170 0 -282.5 155.5t-141.5 411.5h-147z" />
<glyph unicode="&#x2122;" d="M109 1300v80h407v-80h-164v-397h-80v397h-163zM545 903v477h172l86 -200l86 200h172v-477h-82v397l-37 -8l-86 -180h-106l-86 188h-39v-397h-80z" />
<glyph unicode="&#xe000;" horiz-adv-x="1040" d="M0 1040h1040v-1040h-1040v1040z" />
<glyph unicode="&#xfb01;" horiz-adv-x="2518" d="M1497 0v90h393v842h-393v88h483v-930h393v-90h-876zM1757 1446q0 55 38.5 94t94 39t94.5 -39t39 -94t-39 -94t-94.5 -39t-94 39t-38.5 94zM197 0v90h295v1106q0 154 97 247t242 93h181v-90h-181q-111 0 -180 -66.5t-69 -183.5v-176h430v-88h-430v-842h430v-90h-815z" />
<glyph unicode="&#xfb02;" horiz-adv-x="2518" d="M1452 0v88h393v1448h90v-1448h393v-88h-876zM197 0v90h295v1106q0 154 97 247t242 93h181v-90h-181q-111 0 -180 -66.5t-69 -183.5v-176h430v-88h-430v-842h430v-90h-815z" />
<glyph unicode="&#xfb03;" horiz-adv-x="3777" d="M2756 0v90h393v842h-393v88h483v-930h393v-90h-876zM3016 1446q0 55 38.5 94t94 39t94.5 -39t39 -94t-39 -94t-94.5 -39t-94 39t-38.5 94zM1456 0v90h295v1106q0 154 97 247t242 93h181v-90h-181q-111 0 -180 -66.5t-69 -183.5v-176h430v-88h-430v-842h430v-90h-815z M197 0v90h295v1106q0 154 97 247t242 93h181v-90h-181q-111 0 -180 -66.5t-69 -183.5v-176h430v-88h-430v-842h430v-90h-815z" />
<glyph unicode="&#xfb04;" horiz-adv-x="3777" d="M2711 0v88h393v1448h90v-1448h393v-88h-876zM1456 0v90h295v1106q0 154 97 247t242 93h181v-90h-181q-111 0 -180 -66.5t-69 -183.5v-176h430v-88h-430v-842h430v-90h-815zM197 0v90h295v1106q0 154 97 247t242 93h181v-90h-181q-111 0 -180 -66.5t-69 -183.5v-176h430 v-88h-430v-842h430v-90h-815z" />
</font>
</defs>
</svg>
